<svg viewBox="0 0 40 40" xmlns="http://www.w3.org/2000/svg" width="40" height="40">
  <!-- Samma emblem som <LogoMark> i src/components/ui/Logo.tsx.
       Ändras det ena bör det andra ändras med. -->
  <rect width="40" height="40" rx="9" fill="#2585ab" />
  <path
    d="M9 20c3.4-4.6 8.1-6.9 12.4-6.9 3.1 0 5.9 1.2 8.2 3.2l3.4-2.6c.5-.4 1.2 0 1.1.6l-.8 4.4c-.1.4-.1.8 0 1.2l.8 4.4c.1.6-.6 1-1.1.6l-3.4-2.6c-2.3 2-5.1 3.2-8.2 3.2C17.1 26.9 12.4 24.6 9 20Z"
    fill="#ffffff"
  />
  <circle cx="16.4" cy="18.4" r="1.5" fill="#1b4860" />
  <path
    d="M22.5 14.6c-1.4 3.4-1.4 7.4 0 10.8"
    stroke="#2585ab"
    stroke-width="1.4"
    fill="none"
    stroke-linecap="round"
  />
</svg>
